<svg width="16" height="20" viewBox="0 0 16 20" fill="none" xmlns="http://www.w3.org/2000/svg">
<path d="M5.60078 0.400391C4.96426 0.400391 4.35381 0.653247 3.90372 1.10333C3.45364 1.55342 3.20078 2.16387 3.20078 2.80039V14.8004C3.20078 15.4369 3.45364 16.0474 3.90372 16.4974C4.35381 16.9475 4.96426 17.2004 5.60078 17.2004H12.8008C13.4373 17.2004 14.0477 16.9475 14.4978 16.4974C14.9479 16.0474 15.2008 15.4369 15.2008 14.8004V2.80039C15.2008 2.16387 14.9479 1.55342 14.4978 1.10333C14.0477 0.653247 13.4373 0.400391 12.8008 0.400391H5.60078ZM4.40078 2.80039C4.40078 2.48213 4.52721 2.17691 4.75225 1.95186C4.9773 1.72682 5.28252 1.60039 5.60078 1.60039H12.8008C13.119 1.60039 13.4243 1.72682 13.6493 1.95186C13.8744 2.17691 14.0008 2.48213 14.0008 2.80039V14.8004C14.0008 15.1187 13.8744 15.4239 13.6493 15.6489C13.4243 15.874 13.119 16.0004 12.8008 16.0004H5.60078C5.28252 16.0004 4.9773 15.874 4.75225 15.6489C4.52721 15.4239 4.40078 15.1187 4.40078 14.8004V2.80039ZM0.800781 5.20039C0.800792 4.77911 0.911692 4.36526 1.12234 4.00043C1.33298 3.63559 1.63594 3.33263 2.00078 3.12199V15.4004C2.00078 16.196 2.31685 16.9591 2.87946 17.5217C3.44207 18.0843 4.20513 18.4004 5.00078 18.4004H12.4792C12.2685 18.7652 11.9656 19.0682 11.6007 19.2788C11.2359 19.4895 10.8221 19.6004 10.4008 19.6004H5.00078C3.88687 19.6004 2.81859 19.1579 2.03093 18.3702C1.24328 17.5826 0.800781 16.5143 0.800781 15.4004V5.20039Z" fill="#BEC9DA"/>
</svg>
