<svg width="24" height="25" viewBox="0 0 24 25" fill="none" xmlns="http://www.w3.org/2000/svg">
<path d="M2 13.5719C2 10.0719 3.4 8.67188 6.9 8.67188H11.1C14.6 8.67188 16 10.0719 16 13.5719V17.7719C16 21.2719 14.6 22.6719 11.1 22.6719H6.9C3.4 22.6719 2 21.2719 2 17.7719" stroke="#9D94B8" stroke-width="1.5" stroke-linecap="round" stroke-linejoin="round"/>
<path d="M22 11.7719C22 15.2719 20.6 16.6719 17.1 16.6719H16V13.5719C16 10.0719 14.6 8.67188 11.1 8.67188H8V7.57188C8 4.07188 9.4 2.67188 12.9 2.67188H17.1C20.6 2.67188 22 4.07188 22 7.57188" stroke="#9D94B8" stroke-width="1.5" stroke-linecap="round" stroke-linejoin="round"/>
</svg>
