<svg width="32" height="32" viewBox="0 0 32 32" fill="none" xmlns="http://www.w3.org/2000/svg">
<rect opacity="0.2" width="32" height="32" rx="16" fill="#9EAEC7"/>
<path d="M14.076 15C14.676 15 15.162 15.45 15.151 16C15.151 16.55 14.677 17 14.076 17C13.486 17 13 16.55 13 16C13 15.45 13.475 15 14.076 15ZM17.924 15C18.525 15 19 15.45 19 16C19 16.55 18.525 17 17.924 17C17.334 17 16.849 16.55 16.849 16C16.849 15.45 17.323 15 17.924 15ZM22.891 6C24.054 6 25 6.966 25 8.163V27L22.789 25.005L21.544 23.829L20.227 22.579L20.773 24.522H9.109C7.946 24.522 7 23.556 7 22.359V8.163C7 6.966 7.946 6 9.109 6H22.89H22.891ZM18.921 19.713C21.194 19.64 22.069 18.117 22.069 18.117C22.069 14.736 20.587 11.995 20.587 11.995C19.107 10.862 17.697 10.893 17.697 10.893L17.553 11.061C19.302 11.607 20.114 12.395 20.114 12.395C19.1591 11.857 18.1066 11.5143 17.018 11.387C16.3274 11.309 15.6299 11.3157 14.941 11.407C14.879 11.407 14.827 11.418 14.766 11.428C14.406 11.46 13.531 11.596 12.431 12.09C12.051 12.268 11.824 12.395 11.824 12.395C11.824 12.395 12.678 11.565 14.529 11.019L14.426 10.893C14.426 10.893 13.017 10.862 11.536 11.996C11.536 11.996 10.055 14.736 10.055 18.117C10.055 18.117 10.919 19.639 13.192 19.713C13.192 19.713 13.572 19.241 13.882 18.842C12.575 18.442 12.082 17.602 12.082 17.602C12.082 17.602 12.184 17.676 12.369 17.781C12.379 17.791 12.389 17.802 12.41 17.812C12.441 17.834 12.472 17.844 12.503 17.865C12.76 18.012 13.017 18.127 13.253 18.222C13.675 18.39 14.179 18.558 14.766 18.674C15.6453 18.8464 16.5494 18.8498 17.43 18.684C17.9429 18.5925 18.4433 18.4411 18.921 18.233C19.281 18.096 19.682 17.896 20.104 17.613C20.104 17.613 19.59 18.474 18.242 18.863C18.551 19.262 18.922 19.713 18.922 19.713H18.921Z" fill="#9EAEC7"/>
</svg>
