<svg id="Layer_1" data-name="Layer 1" xmlns="http://www.w3.org/2000/svg" viewBox="0 0 734 164.01"><defs><style>.cls-1{fill:#21325b;}.cls-2{fill:#979695;}</style></defs><title>etherscanlogo-freelogovectors.net</title><path id="Path_8" data-name="Path 8" class="cls-1" d="M209.82,349.31q0-8.24-5.68-8.23a9.2,9.2,0,0,0-2.34.22,16.8,16.8,0,0,1-3,.33,3.25,3.25,0,0,1-2.45-1.05,3.65,3.65,0,0,1-1-2.62c0-2.6,1.55-3.89,4.66-3.89.07,0,.62,0,1.66.11q16.64,1.11,15.53,1.11h1.1l26.73-.78q.78,0,5.76-.33c1.19-.08,2.26-.11,3.22-.11,3.84,0,5.77,1.7,5.77,5.11q0,.9-.32,5.68-.24,3.56-.24,6.57a52.14,52.14,0,0,0,.19,5.45,47.83,47.83,0,0,1,.37,4.78q0,4.23-4,4.23t-4-5.92v-5.82q0-9.39-3.88-11.07Q245,341.85,233,341.85a66,66,0,0,0-9.32.34q-4.77,1.24-4.77,6.78V360.1c0,3,.66,4.67,2,5.12a10.55,10.55,0,0,0,2.63.22H228q6.92,0,6.92-4.78a26.45,26.45,0,0,0-.28-3.45,30.2,30.2,0,0,1-.28-3.79q0-4.46,3.95-4.46c2.64,0,4,1.6,4,4.79q0,.88-.72,6.9a77.63,77.63,0,0,0-.61,9q0,2.22.44,7.9c.08.59.26,1.89.56,3.89a30,30,0,0,1,.33,3.9,3.54,3.54,0,0,1-1,3,3.58,3.58,0,0,1-3,1q-3.9,0-3.9-4.68a32.63,32.63,0,0,1,.28-3.56,32.63,32.63,0,0,0,.28-3.56c0-3.19-2.12-4.78-6.34-4.78h-5c-2.15,0-3.47.37-4,1.11a10.17,10.17,0,0,0-.73,4.79v6.9c0,1.19,0,2.78.12,4.78.07,2.45.11,4.08.11,4.9.07,3,.66,4.82,1.78,5.57q1.22.78,5.78.78h15.15c4.37,0,7.38-.65,9-1.95s2.45-3.73,2.45-7.29c0-1.11-.06-2.76-.17-4.95s-.16-3.84-.16-5c0-3.34,1.31-5,3.95-5s4.17,1.71,4.17,5.12q0,2-.17,6.12t-.16,6.12c0,1,0,2.58.16,4.62s.17,3.58.17,4.62q0,5.24-5.12,5.23c-.81,0-2.11-.08-3.89-.25-.9-.09-2.53-.14-4.9-.14.52,0-2.38-.08-8.68-.25s-11.76-.25-16.36-.25q-10.47,0-20.48.78a4.79,4.79,0,0,0-1,.11H200q-4.67,0-4.67-4,0-3.57,3.46-3.57c.37,0,1.37.08,3,.23a9.24,9.24,0,0,0,2.34.33q5.67,0,5.67-8.35Zm93.48,44.07v-7.12c.08-3.05,1.41-4.57,4-4.57s3.89,1.71,3.89,5.12q0,12.12-3.1,16.92-4.19,6.45-13.81,6.45-8.85,0-12.6-5.67-2.76-4.12-2.77-14V363.77c0-1.55-.72-2.33-2.16-2.33h-3.64a4.19,4.19,0,0,1-3-1.17,3.81,3.81,0,0,1-1.19-2.84,3.91,3.91,0,0,1,1.17-2.79,3.52,3.52,0,0,1,2.61-1.21H277c1.26,0,1.9-.71,1.9-2.12V339.85c0-2.82,1.44-4.23,4.34-4.23q4,0,4,4.23v11.91c0,1.11.67,1.67,2,1.67h12.13q4.23,0,4.23,3.89,0,4.13-4.57,4.12H288.83q-1.56,0-1.56,2.34v27.38q0,11.68,7.79,11.68T303.3,393.38ZM334.24,337l-.45,21.68a30,30,0,0,1,8.15-5.84,21.62,21.62,0,0,1,8.7-1.61q9.6,0,15.41,5.45a18.78,18.78,0,0,1,5.8,14.36v18.58q0,6.57.11,7.24c.3,3.71,1.26,5.56,2.9,5.56a8.13,8.13,0,0,0,2.56-.62,8.14,8.14,0,0,1,1.78-.16c2.74,0,4.12,1.26,4.12,3.79s-1.78,3.79-5.35,3.79a37.29,37.29,0,0,1-4.22-.33,66.13,66.13,0,0,0-7.57-.56,34.72,34.72,0,0,0-4.45.22q-4.68.68-5.79.67A4.91,4.91,0,0,1,352.6,408a3.75,3.75,0,0,1-1.34-2.95,3.16,3.16,0,0,1,1.17-2.45,4.14,4.14,0,0,1,2.73-1,9.21,9.21,0,0,1,2.89.56,6.12,6.12,0,0,0,1.9.33q3.33,0,3.45-7.23c0-.89.07-2.63.22-5.23v-10.8c0-7.56-.75-12.65-2.23-15.24q-3.24-5.79-11.4-5.79-8.82,0-12.85,6-2.79,4.13-2.9,13.24v8a9.41,9.41,0,0,1-.45,2.22v2.12c0,4.23,0,6.67.12,7.34q.57,5.46,3.32,5.46a9.45,9.45,0,0,0,2.57-.51,9.78,9.78,0,0,1,2.46-.5q3.66,0,3.66,3.56,0,4-4.93,4c-1,0-2.61-.11-4.7-.33q-3.63-.41-7.29-.45c-1.27,0-3,.11-5.26.34q-4.49.44-5.72.44c-3.06,0-4.59-1.37-4.59-4.13q0-3.44,4.3-3.44a5.66,5.66,0,0,1,2.16.31,13,13,0,0,0,2.71.47c1.21,0,2-1.13,2.44-3.39a102,102,0,0,0,.73-13.87V365.22q0-16.7-.67-21.09T322,339.74a11.58,11.58,0,0,0-2.34.33,12.58,12.58,0,0,1-2.44.34q-3.79,0-3.79-3.57a3.35,3.35,0,0,1,1.33-2.67,4.92,4.92,0,0,1,3.23-1.11c.37,0,1.63.11,3.79.34,1.51.15,3,.22,4.56.22a20,20,0,0,0,2.78-.28,18.39,18.39,0,0,1,2.56-.28q2.56,0,2.56,3.69Zm104.06,39a13.58,13.58,0,0,1-.56,5.15c-.37.63-1.45.95-3.24.95H399a3.12,3.12,0,0,0-1.89.39,1.67,1.67,0,0,0-.45,1.29,20.15,20.15,0,0,0,5,14,16.6,16.6,0,0,0,21.48,2.92,12.14,12.14,0,0,0,5.3-6.78l1-3.23a3.45,3.45,0,0,1,3.68-2.67q4.13,0,4.13,4.23,0,7.23-7.34,12.86a26.77,26.77,0,0,1-16.7,5.61q-11.67,0-18.58-7.85t-6.9-21.09q0-13.57,7.34-22a24.12,24.12,0,0,1,19.14-8.46,23,23,0,0,1,17.25,7,24.4,24.4,0,0,1,6.79,17.75Zm-40.41-2.81q0,1.56,2.46,1.56H427c1.57,0,2.35-.52,2.35-1.56a13.81,13.81,0,0,0-4.47-10.24,14.61,14.61,0,0,0-10.5-4.34A16.91,16.91,0,0,0,403,363.05Q397.9,367.57,397.89,373.12Zm65.44-16.86v3.06a19.41,19.41,0,0,1,28.1-3.72,14.52,14.52,0,0,1,4.84,11.29,12.36,12.36,0,0,1-2.44,8,7.87,7.87,0,0,1-6.46,3.06,6.34,6.34,0,0,1-4.34-1.56,4.84,4.84,0,0,1-1.78-3.79,4.43,4.43,0,0,1,1.34-3.17A4.18,4.18,0,0,1,485.7,368a7.25,7.25,0,0,1,1.45.33,5.49,5.49,0,0,0,.66-2.44,6.7,6.7,0,0,0-2.84-5.46,11.1,11.1,0,0,0-7.07-2.22q-8.67,0-11.57,7.79-1.79,4.78-1.78,14.46v7.35q0,7.45.11,8.35c.38,4.22,1.54,6.34,3.48,6.34a13.45,13.45,0,0,0,3-.38,9.67,9.67,0,0,1,2.14-.29q3.6,0,3.6,3.51,0,3.84-4.57,3.84h-.44q-2.55-.07-5.07-.39a47.67,47.67,0,0,0-5.06-.39c-3,0-5.3.07-7,.22l-6.23.56q-4.56,0-4.56-3.9,0-3.45,4.27-3.45a9.43,9.43,0,0,1,1.68.11l1.69.33a9.14,9.14,0,0,0,1.57.23q2.81,0,3-5.12V391.7l-.33-25.26q-.35-6.57-3.34-6.57a15.58,15.58,0,0,0-2.45.28,14.48,14.48,0,0,1-2.45.28q-3.67,0-3.67-3.51c0-2.56,1.59-3.83,4.78-3.83a30.9,30.9,0,0,1,3.34.27,28.75,28.75,0,0,0,3.34.28,21.73,21.73,0,0,0,2.9-.28,7.15,7.15,0,0,1,2.11-.27Q463.34,353.09,463.33,356.26Zm61.25-5.06A19.62,19.62,0,0,1,537,355.09v-.44c0-2.75,1.18-4.12,3.56-4.12s3.67,1.19,3.67,3.56c0,.45-.06,1.56-.19,3.34a27.64,27.64,0,0,0-.37,4.45,38.9,38.9,0,0,0,.28,3.9,38.9,38.9,0,0,1,.28,3.9c0,2.81-1.2,4.22-3.62,4.22a3.22,3.22,0,0,1-3.61-3.56v-3.67c-.08-2.23-1.36-4.14-3.86-5.73a15.9,15.9,0,0,0-8.78-2.39,13.89,13.89,0,0,0-8.61,2.61,7.89,7.89,0,0,0-3.46,6.51q0,7.13,9.82,8.46l6.48.89q19,2.57,19,15.69a15.9,15.9,0,0,1-6.11,13q-6.09,4.95-16,4.95a25.39,25.39,0,0,1-16-5.23v2.12q0,4-3.79,4-4.11,0-4.11-4.56a56.36,56.36,0,0,0,.66-5.79,23.12,23.12,0,0,0,.23-3.11,27.14,27.14,0,0,0-.45-5,20.57,20.57,0,0,1-.45-3.67q0-3.9,3.57-3.9c1.55,0,2.54.38,2.95,1.12a17.27,17.27,0,0,1,.72,5.89q.11,4.78,5,7.79a23.49,23.49,0,0,0,12.46,3,14.29,14.29,0,0,0,9-2.78,8.58,8.58,0,0,0,3.56-7q0-7.56-12-8.79-11.46-1.23-17.47-4.51t-6-11.52A15.58,15.58,0,0,1,509.27,356q5.88-4.85,15.31-4.84ZM588.31,372c0-3,1.85-4.67,5.56-5.12a8.63,8.63,0,0,0-3.74-6.12,14.1,14.1,0,0,0-8.21-2.23,14.88,14.88,0,0,0-12.4,6.13q-4.69,6.12-4.69,16.24,0,10.45,4.41,16.41a14.33,14.33,0,0,0,12.22,6A13.68,13.68,0,0,0,590,400.5a14,14,0,0,0,5-7.68c.74-2.6,1.19-4.08,1.34-4.45a3.89,3.89,0,0,1,3.57-2.23,4.19,4.19,0,0,1,4.36,4.34,16.62,16.62,0,0,1-1.79,6.68,23,23,0,0,1-4.22,6.46,22.29,22.29,0,0,1-17,7,23,23,0,0,1-18.3-8q-7-8-7-21,0-13.8,7.17-22.09t19.09-8.29A22.57,22.57,0,0,1,597,356a15.22,15.22,0,0,1,5.9,12.3,10.09,10.09,0,0,1-2.28,6.79,7.33,7.33,0,0,1-5.84,2.67,6.59,6.59,0,0,1-4.62-1.67A5.32,5.32,0,0,1,588.31,372Zm72.23,38.17q-9.13,0-11.24-7.9-5.68,8.36-17.81,8.35-9,0-14.41-4.45a14.66,14.66,0,0,1-5.4-11.91,14.45,14.45,0,0,1,7.9-13.58,21.06,21.06,0,0,1,5.18-2.17q2.16-.5,8.73-1.28,9.36-1,12.19-2.78c1.89-1.19,2.83-3.37,2.84-6.56a8.83,8.83,0,0,0-3.17-7.18,13.55,13.55,0,0,0-8.85-2.61,17.06,17.06,0,0,0-9.35,2.78c-1.11.74-1.67,1.52-1.67,2.34,0,.3.34.67,1,1.11a4.34,4.34,0,0,1,1.55,3.79,4.71,4.71,0,0,1-1.61,3.68,5.86,5.86,0,0,1-4.06,1.44,6.44,6.44,0,0,1-4.84-2,6.74,6.74,0,0,1-1.95-4.9q0-6.23,6.18-10.68a24.89,24.89,0,0,1,15-4.46q20.26,0,20.26,19.43v22.43a47.72,47.72,0,0,0,.22,6.33q.67,3.89,3.79,3.89,3.9,0,3.9-7.07V390.8q0-3.54,3.39-3.54c2.41,0,3.62,1.79,3.62,5.35v6.9q-.24,10.67-11.36,10.67ZM648.07,388v-7.9a14.12,14.12,0,0,1-5.15,3.12,52.17,52.17,0,0,1-9.7,1.56q-12.63,1.21-12.64,9.34a8.11,8.11,0,0,0,3.06,6.68,12.89,12.89,0,0,0,8.29,2.45q7.47,0,11.75-4.06A15,15,0,0,0,648.07,388Zm44.41-31.54v3.17a21.53,21.53,0,0,1,17.8-8.46,22.39,22.39,0,0,1,11.35,3.06,16,16,0,0,1,7.24,7.62,26.53,26.53,0,0,1,1.56,9.91v21.14c0,3.19,0,5.08.11,5.68.37,2.52,1.37,3.79,3,3.79a16.52,16.52,0,0,0,2.62-.28,15.78,15.78,0,0,1,2.28-.28,3.54,3.54,0,0,1,2.5,1,3.26,3.26,0,0,1,1.06,2.45,3.47,3.47,0,0,1-1.34,2.78,4.84,4.84,0,0,1-3.22,1.11,46.12,46.12,0,0,1-5.12-.44,53.41,53.41,0,0,0-6.68-.45,42.37,42.37,0,0,0-4.78.22q-5.57.67-5.9.67-4.46,0-4.45-3.9,0-3.45,3.85-3.45a10.91,10.91,0,0,1,2,.23,20.7,20.7,0,0,0,2.71.45q2.73,0,3-6.12V375.46a39.43,39.43,0,0,0-.55-8.12,10.75,10.75,0,0,0-4.32-6.57,14.23,14.23,0,0,0-8.32-2.56q-8.86,0-12.75,6.35-2.65,4.33-2.66,14.8v14.8a22.11,22.11,0,0,0,.67,6.68,2.46,2.46,0,0,0,2.45,1.78,11.28,11.28,0,0,0,2.45-.39,10.5,10.5,0,0,1,2.56-.39q3.45,0,3.45,3.72c0,2.42-1.49,3.62-4.46,3.62q-.89,0-5.78-.67a41.47,41.47,0,0,0-5.46-.33,56.19,56.19,0,0,0-6.22.44c-3.27.38-5.12.56-5.57.56q-4.66,0-4.67-3.79a3.17,3.17,0,0,1,3.63-3.56,12.41,12.41,0,0,1,2.1.33,14.37,14.37,0,0,0,3,.34q3.4,0,3.52-6.46V366.33a14.08,14.08,0,0,0-1-5.17,2.63,2.63,0,0,0-2.55-1.39,11.38,11.38,0,0,0-2.32.33,12.14,12.14,0,0,1-2.32.34q-4.08,0-4.08-3.62t5-3.73a4.68,4.68,0,0,1,1.12.11l4.12.45a15.51,15.51,0,0,0,3.11-.28l3-.28Q692.47,353.09,692.48,356.49Z" transform="translate(-8 -292.99)"/><g id="circle"><g id="Group_3" data-name="Group 3"><path id="Path_1" data-name="Path 1" class="cls-1" d="M42.16,371a7,7,0,0,1,7-7h0l11.6,0a7,7,0,0,1,7,7h0v43.85c1.3-.38,3-.8,4.82-1.23A5.81,5.81,0,0,0,77,408v-54.4a7,7,0,0,1,7-7H95.63a7,7,0,0,1,7,7v50.49s2.91-1.18,5.75-2.38a5.82,5.82,0,0,0,3.55-5.35V336.15a7,7,0,0,1,7-7h11.62a7,7,0,0,1,7,7v49.56c10.07-7.3,20.28-16.08,28.38-26.64a11.69,11.69,0,0,0,1.78-10.93A82.08,82.08,0,1,0,18.93,416a10.37,10.37,0,0,0,9.9,5.13q3.3-.28,8.19-.85a5.81,5.81,0,0,0,5.14-5.76V371" transform="translate(-8 -292.99)"/><path id="Path_2" data-name="Path 2" class="cls-2" d="M41.92,441.29a82.1,82.1,0,0,0,130.4-66.41c0-1.89-.09-3.76-.22-5.62-30,44.75-85.39,65.66-130.18,72" transform="translate(-8 -292.99)"/></g></g></svg>