<svg width="32" height="32" viewBox="0 0 32 32" fill="none" xmlns="http://www.w3.org/2000/svg">
<rect opacity="0.2" width="32" height="32" rx="16" fill="#9EAEC7"/>
<path d="M15.9906 5.78809C10.1945 5.78574 5.5 10.4779 5.5 16.2693C5.5 20.849 8.43672 24.742 12.5266 26.1717C13.0773 26.3099 12.993 25.9185 12.993 25.6513V23.8349C9.8125 24.2076 9.68359 22.1029 9.47031 21.7514C9.03906 21.0154 8.01953 20.8279 8.32422 20.4764C9.04844 20.1037 9.78672 20.5701 10.6422 21.8334C11.2609 22.7498 12.468 22.5951 13.0797 22.4428C13.2133 21.892 13.4992 21.3998 13.893 21.0178C10.5977 20.4271 9.22422 18.4162 9.22422 16.0256C9.22422 14.8654 9.60625 13.799 10.3562 12.9389C9.87812 11.5209 10.4008 10.3068 10.4711 10.1264C11.8328 10.0045 13.2484 11.1014 13.3586 11.1881C14.132 10.9795 15.0156 10.8693 16.0047 10.8693C16.9984 10.8693 17.8844 10.9842 18.6648 11.1951C18.9297 10.9935 20.2422 10.0514 21.5078 10.1662C21.5758 10.3467 22.0867 11.5326 21.6367 12.9318C22.3961 13.7943 22.7828 14.8701 22.7828 16.0326C22.7828 18.4279 21.4 20.4412 18.0953 21.0224C18.3784 21.3008 18.6031 21.6328 18.7564 21.999C18.9098 22.3652 18.9886 22.7583 18.9883 23.1553V25.792C19.007 26.0029 18.9883 26.2115 19.3398 26.2115C23.4906 24.8123 26.4789 20.8912 26.4789 16.2717C26.4789 10.4779 21.782 5.78809 15.9906 5.78809V5.78809Z" fill="#9EAEC7"/>
</svg>
