<svg width="32" height="32" viewBox="0 0 32 32" fill="none" xmlns="http://www.w3.org/2000/svg">
<rect opacity="0.2" width="32" height="32" rx="16" fill="#9EAEC7"/>
<path d="M16.003 12.8758C14.2827 12.8758 12.8788 14.2797 12.8788 16C12.8788 17.7203 14.2827 19.1242 16.003 19.1242C17.7234 19.1242 19.1273 17.7203 19.1273 16C19.1273 14.2797 17.7234 12.8758 16.003 12.8758ZM25.3734 16C25.3734 14.7063 25.3851 13.4242 25.3124 12.1328C25.2398 10.6328 24.8976 9.30158 23.8007 8.2047C22.7015 7.10548 21.3726 6.76564 19.8726 6.69298C18.5788 6.62033 17.2968 6.63204 16.0054 6.63204C14.7116 6.63204 13.4296 6.62033 12.1382 6.69298C10.6382 6.76564 9.30695 7.10783 8.21007 8.2047C7.11085 9.30392 6.77101 10.6328 6.69835 12.1328C6.6257 13.4266 6.63742 14.7086 6.63742 16C6.63742 17.2914 6.6257 18.5758 6.69835 19.8672C6.77101 21.3672 7.1132 22.6984 8.21007 23.7953C9.30929 24.8945 10.6382 25.2344 12.1382 25.307C13.4319 25.3797 14.714 25.368 16.0054 25.368C17.2991 25.368 18.5812 25.3797 19.8726 25.307C21.3726 25.2344 22.7038 24.8922 23.8007 23.7953C24.8999 22.6961 25.2398 21.3672 25.3124 19.8672C25.3874 18.5758 25.3734 17.2938 25.3734 16ZM16.003 20.807C13.3429 20.807 11.196 18.6602 11.196 16C11.196 13.3399 13.3429 11.193 16.003 11.193C18.6632 11.193 20.8101 13.3399 20.8101 16C20.8101 18.6602 18.6632 20.807 16.003 20.807ZM21.0069 12.1188C20.3859 12.1188 19.8843 11.6172 19.8843 10.9961C19.8843 10.375 20.3859 9.87345 21.0069 9.87345C21.628 9.87345 22.1296 10.375 22.1296 10.9961C22.1298 11.1436 22.1009 11.2897 22.0445 11.4259C21.9882 11.5622 21.9055 11.6861 21.8012 11.7904C21.6969 11.8946 21.5731 11.9773 21.4368 12.0337C21.3005 12.09 21.1544 12.1189 21.0069 12.1188Z" fill="#9EAEC7"/>
</svg>
