<svg width="40" height="40" viewBox="0 0 40 40" fill="none" xmlns="http://www.w3.org/2000/svg">
<path d="M36.3185 2.91992L21.8457 13.6288L24.5371 7.31771L36.3185 2.91992Z" fill="#E17726" stroke="#E17726" stroke-width="0.25" stroke-linecap="round" stroke-linejoin="round"/>
<path d="M2.93359 2.91992L17.2776 13.7287L14.7151 7.3177L2.93359 2.91992Z" fill="#E27625" stroke="#E27625" stroke-width="0.25" stroke-linecap="round" stroke-linejoin="round"/>
<path d="M31.1067 27.75L27.2559 33.6328L35.5015 35.9031L37.8636 27.8786L31.1067 27.75Z" fill="#E27625" stroke="#E27625" stroke-width="0.25" stroke-linecap="round" stroke-linejoin="round"/>
<path d="M1.40234 27.8786L3.75005 35.9031L11.9814 33.6328L8.14486 27.75L1.40234 27.8786Z" fill="#E27625" stroke="#E27625" stroke-width="0.25" stroke-linecap="round" stroke-linejoin="round"/>
<path d="M11.5385 17.813L9.24805 21.2684L17.4078 21.6397L17.1358 12.8584L11.5385 17.813Z" fill="#E27625" stroke="#E27625" stroke-width="0.25" stroke-linecap="round" stroke-linejoin="round"/>
<path d="M27.7149 17.8124L22.0318 12.7578L21.8457 21.639L30.0054 21.2678L27.7149 17.8124Z" fill="#E27625" stroke="#E27625" stroke-width="0.25" stroke-linecap="round" stroke-linejoin="round"/>
<path d="M11.9824 33.6326L16.9212 31.2482L12.6696 27.9355L11.9824 33.6326Z" fill="#E27625" stroke="#E27625" stroke-width="0.25" stroke-linecap="round" stroke-linejoin="round"/>
<path d="M22.332 31.2482L27.2564 33.6326L26.5836 27.9355L22.332 31.2482Z" fill="#E27625" stroke="#E27625" stroke-width="0.25" stroke-linecap="round" stroke-linejoin="round"/>
<path d="M27.2564 33.6335L22.332 31.249L22.7328 34.4474L22.6898 35.8038L27.2564 33.6335Z" fill="#D5BFB2" stroke="#D5BFB2" stroke-width="0.25" stroke-linecap="round" stroke-linejoin="round"/>
<path d="M11.9824 33.6335L16.5634 35.8038L16.5347 34.4474L16.9212 31.249L11.9824 33.6335Z" fill="#D5BFB2" stroke="#D5BFB2" stroke-width="0.25" stroke-linecap="round" stroke-linejoin="round"/>
<path d="M16.6489 25.8232L12.5547 24.6238L15.4464 23.2959L16.6489 25.8232Z" fill="#233447" stroke="#233447" stroke-width="0.25" stroke-linecap="round" stroke-linejoin="round"/>
<path d="M22.6035 25.8232L23.8061 23.2959L26.7121 24.6238L22.6035 25.8232Z" fill="#233447" stroke="#233447" stroke-width="0.25" stroke-linecap="round" stroke-linejoin="round"/>
<path d="M11.981 33.6328L12.6968 27.75L8.14453 27.8786L11.981 33.6328Z" fill="#CC6228" stroke="#CC6228" stroke-width="0.25" stroke-linecap="round" stroke-linejoin="round"/>
<path d="M26.5547 27.75L27.2562 33.6328L31.107 27.8786L26.5547 27.75Z" fill="#CC6228" stroke="#CC6228" stroke-width="0.25" stroke-linecap="round" stroke-linejoin="round"/>
<path d="M30.0054 21.2676L21.8457 21.6388L22.6044 25.8225L23.8069 23.2951L26.7129 24.6231L30.0054 21.2676Z" fill="#CC6228" stroke="#CC6228" stroke-width="0.25" stroke-linecap="round" stroke-linejoin="round"/>
<path d="M12.5549 24.6231L15.4466 23.2951L16.6491 25.8225L17.4078 21.6388L9.24805 21.2676L12.5549 24.6231Z" fill="#CC6228" stroke="#CC6228" stroke-width="0.25" stroke-linecap="round" stroke-linejoin="round"/>
<path d="M9.24805 21.2676L12.6694 27.9357L12.5548 24.6231L9.24805 21.2676Z" fill="#E27525" stroke="#E27525" stroke-width="0.25" stroke-linecap="round" stroke-linejoin="round"/>
<path d="M26.7128 24.6231L26.584 27.9357L30.0054 21.2676L26.7128 24.6231Z" fill="#E27525" stroke="#E27525" stroke-width="0.25" stroke-linecap="round" stroke-linejoin="round"/>
<path d="M17.4072 21.6396L16.6484 25.8233L17.6076 30.7636L17.8223 24.2527L17.4072 21.6396Z" fill="#E27525" stroke="#E27525" stroke-width="0.25" stroke-linecap="round" stroke-linejoin="round"/>
<path d="M21.8442 21.6396L21.4434 24.2384L21.6438 30.7636L22.6029 25.8233L21.8442 21.6396Z" fill="#E27525" stroke="#E27525" stroke-width="0.25" stroke-linecap="round" stroke-linejoin="round"/>
<path d="M22.6036 25.8235L21.6445 30.7637L22.3317 31.2493L26.5834 27.9366L26.7122 24.624L22.6036 25.8235Z" fill="#F5841F" stroke="#F5841F" stroke-width="0.25" stroke-linecap="round" stroke-linejoin="round"/>
<path d="M12.5547 24.624L12.6693 27.9366L16.9209 31.2493L17.608 30.7637L16.6489 25.8235L12.5547 24.624Z" fill="#F5841F" stroke="#F5841F" stroke-width="0.25" stroke-linecap="round" stroke-linejoin="round"/>
<path d="M22.6903 35.8032L22.7332 34.4467L22.361 34.1325H16.8926L16.5347 34.4467L16.5634 35.8032L11.9824 33.6328L13.5857 34.9464L16.8353 37.1882H22.4039L25.6678 34.9464L27.2568 33.6328L22.6903 35.8032Z" fill="#C0AC9D" stroke="#C0AC9D" stroke-width="0.25" stroke-linecap="round" stroke-linejoin="round"/>
<path d="M22.3309 31.2481L21.6437 30.7627H17.6068L16.9198 31.2481L16.5332 34.4466L16.8911 34.1324H22.3595L22.7318 34.4466L22.3309 31.2481Z" fill="#161616" stroke="#161616" stroke-width="0.25" stroke-linecap="round" stroke-linejoin="round"/>
<path d="M36.9336 14.3284L38.1504 8.41714L36.318 2.91992L22.332 13.2719L27.7145 17.8124L35.3159 20.0256L36.9909 18.0695L36.2608 17.5411L37.4203 16.4845L36.5328 15.7991L37.6924 14.9139L36.9336 14.3284Z" fill="#763E1A" stroke="#763E1A" stroke-width="0.25" stroke-linecap="round" stroke-linejoin="round"/>
<path d="M1.10156 8.41714L2.33268 14.3284L1.54534 14.9139L2.71919 15.7991L1.83165 16.4845L2.99118 17.5411L2.2611 18.0695L3.936 20.0256L11.5375 17.8124L16.92 13.2719L2.93393 2.91992L1.10156 8.41714Z" fill="#763E1A" stroke="#763E1A" stroke-width="0.25" stroke-linecap="round" stroke-linejoin="round"/>
<path d="M35.3163 20.0256L27.7149 17.8125L30.0054 21.2679L26.584 27.9359L31.1076 27.8788H37.8644L35.3163 20.0256Z" fill="#F5841F" stroke="#F5841F" stroke-width="0.25" stroke-linecap="round" stroke-linejoin="round"/>
<path d="M11.5375 17.8125L3.93615 20.0256L1.40234 27.8788H8.14486L12.6684 27.9359L9.24714 21.2679L11.5375 17.8125Z" fill="#F5841F" stroke="#F5841F" stroke-width="0.25" stroke-linecap="round" stroke-linejoin="round"/>
<path d="M21.8458 21.6397L22.3326 13.2724L24.5371 7.31836H14.7168L16.9213 13.2724L17.408 21.6397L17.5942 24.2669L17.6085 30.7637H21.6454L21.6597 24.2669L21.8458 21.6397Z" fill="#F5841F" stroke="#F5841F" stroke-width="0.25" stroke-linecap="round" stroke-linejoin="round"/>
</svg>
