<svg width="196" height="42" viewBox="0 0 196 42" fill="none" xmlns="http://www.w3.org/2000/svg">
<g clip-path="url(#clip0_118_2739)">
<path d="M34.9096 13.3037C34.0684 12.7836 32.9751 12.7836 32.0499 13.3037L25.4898 17.2909L21.0323 19.8914L14.4722 23.8787C13.6311 24.3988 12.5378 24.3988 11.6127 23.8787L6.39822 20.7583C5.55717 20.2382 4.96845 19.2847 4.96845 18.2444V12.0902C4.96845 11.05 5.47307 10.0965 6.39822 9.57642L11.5286 6.54259C12.3696 6.0225 13.463 6.0225 14.3881 6.54259L19.5185 9.57642C20.3595 10.0965 20.9482 11.05 20.9482 12.0902V16.0775L25.4057 13.3904V9.40306C25.4057 8.36288 24.9011 7.4094 23.976 6.88932L14.4722 1.16838C13.6311 0.648299 12.5378 0.648299 11.6127 1.16838L1.94069 6.88932C1.01555 7.4094 0.510925 8.36288 0.510925 9.40306V20.9316C0.510925 21.9717 1.01555 22.9252 1.94069 23.4453L11.6127 29.1662C12.4537 29.6864 13.5471 29.6864 14.4722 29.1662L21.0323 25.2656L25.4898 22.5785L32.0499 18.6779C32.8911 18.1578 33.9843 18.1578 34.9096 18.6779L40.0398 21.7118C40.8809 22.2318 41.4697 23.1853 41.4697 24.2255V30.3798C41.4697 31.4199 40.9649 32.3734 40.0398 32.8935L34.9096 36.0141C34.0684 36.5342 32.9751 36.5342 32.0499 36.0141L26.9196 32.9802C26.0786 32.4602 25.4898 31.5067 25.4898 30.4664V26.4792L21.0323 29.1662V33.1536C21.0323 34.1937 21.537 35.1472 22.4621 35.6673L32.1341 41.3883C32.9751 41.9084 34.0684 41.9084 34.9936 41.3883L44.6655 35.6673C45.5067 35.1472 46.0953 34.1937 46.0953 33.1536V21.625C46.0953 20.5849 45.5907 19.6314 44.6655 19.1113L34.9096 13.3037Z" fill="#8247E5"/>
<path d="M63.8549 38.0864V28.5155C64.8806 29.8224 66.7419 30.5527 68.9072 30.5527C74.4153 30.5527 78.138 26.5936 78.138 20.5589C78.138 14.5243 74.7192 10.5652 69.363 10.5652C66.8939 10.5652 64.9945 11.4877 63.8549 12.9867V10.8727H58.5747V38.0864H63.8549ZM68.2614 25.9402C65.4124 25.9402 63.551 23.7877 63.551 20.5589C63.551 17.2918 65.4124 15.1393 68.2614 15.1393C71.0344 15.1393 72.9338 17.2918 72.9338 20.5589C72.9338 23.7877 71.0344 25.9402 68.2614 25.9402Z" fill="#8247E5"/>
<path d="M90.128 30.5527C96.016 30.5527 100.233 26.3246 100.233 20.5589C100.233 14.7933 96.016 10.5652 90.128 10.5652C84.24 10.5652 80.0234 14.7933 80.0234 20.5589C80.0234 26.3246 84.24 30.5527 90.128 30.5527ZM90.128 25.9402C87.279 25.9402 85.3416 23.7493 85.3416 20.5589C85.3416 17.3302 87.279 15.1393 90.128 15.1393C92.977 15.1393 94.9143 17.3302 94.9143 20.5589C94.9143 23.7493 92.977 25.9402 90.128 25.9402Z" fill="#8247E5"/>
<path d="M108.705 30.2452V2.45483H103.425V30.2452H108.705Z" fill="#8247E5"/>
<path d="M124.577 10.8728L120.588 23.365L116.562 10.8728H111.168L118.119 30.0916L115.308 38.0866H120.361L123.058 30.1684L130.009 10.8728H124.577Z" fill="#8247E5"/>
<path d="M144.839 12.7946C143.775 11.4492 141.876 10.5652 139.559 10.5652C133.974 10.5652 130.594 14.5243 130.594 20.5589C130.594 26.5936 133.974 30.5527 139.635 30.5527C141.876 30.5527 143.889 29.7071 144.877 28.2849V30.8218C144.877 32.6283 143.699 33.8968 142.104 33.8968H133.291V38.0864H142.939C147.27 38.0864 150.157 35.4343 150.157 31.3983V10.8727H144.839V12.7946ZM140.47 25.9402C137.659 25.9402 135.798 23.8261 135.798 20.5589C135.798 17.2918 137.659 15.1393 140.47 15.1393C143.319 15.1393 145.181 17.2918 145.181 20.5589C145.181 23.8261 143.319 25.9402 140.47 25.9402Z" fill="#8247E5"/>
<path d="M163.468 30.5527C169.356 30.5527 173.572 26.3246 173.572 20.5589C173.572 14.7933 169.356 10.5652 163.468 10.5652C157.58 10.5652 153.363 14.7933 153.363 20.5589C153.363 26.3246 157.58 30.5527 163.468 30.5527ZM163.468 25.9402C160.619 25.9402 158.681 23.7493 158.681 20.5589C158.681 17.3302 160.619 15.1393 163.468 15.1393C166.317 15.1393 168.254 17.3302 168.254 20.5589C168.254 23.7493 166.317 25.9402 163.468 25.9402Z" fill="#8247E5"/>
<path d="M181.779 30.2452V19.6364C181.779 17.138 183.412 15.3314 185.729 15.3314C187.933 15.3314 189.414 17.0227 189.414 19.3674V30.2452H194.732V18.1758C194.732 13.7171 191.921 10.5652 187.591 10.5652C184.97 10.5652 182.842 11.6799 181.779 13.5633V10.8727H176.46V30.2452H181.779Z" fill="#8247E5"/>
</g>
<defs>
<clipPath id="clip0_118_2739">
<rect width="195" height="41" fill="white" transform="translate(0.510925 0.77832)"/>
</clipPath>
</defs>
</svg>
