<svg width="25" height="24" viewBox="0 0 25 24" fill="none" xmlns="http://www.w3.org/2000/svg">
<rect x="0.499756" width="24" height="24" rx="12" fill="#FF4500"/>
<path d="M18.9791 10.1539C18.4517 10.1539 17.9877 10.3719 17.6467 10.7129C16.3916 9.84453 14.7006 9.28555 12.8267 9.22578L13.8006 4.83828L16.9013 5.53437C16.9013 6.29375 17.5201 6.9125 18.2795 6.9125C19.0529 6.9125 19.6752 6.27617 19.6752 5.5168C19.6752 4.75742 19.0564 4.12109 18.2795 4.12109C17.7381 4.12109 17.2705 4.44805 17.0385 4.89453L13.6142 4.13516C13.442 4.08945 13.2732 4.2125 13.2275 4.38477L12.1588 9.22227C10.299 9.29961 8.62556 9.85859 7.36697 10.727C7.02595 10.3719 6.54431 10.1539 6.01697 10.1539C4.06228 10.1539 3.42243 12.7766 5.21189 13.673C5.14861 13.9508 5.12048 14.2461 5.12048 14.5414C5.12048 17.4875 8.43923 19.8746 12.5138 19.8746C16.606 19.8746 19.9248 17.4875 19.9248 14.5414C19.9248 14.2461 19.8931 13.9367 19.8158 13.659C21.5701 12.759 20.9232 10.1539 18.9791 10.1539ZM8.049 13.8594C8.049 13.0859 8.66775 12.4637 9.4447 12.4637C10.2041 12.4637 10.8228 13.0824 10.8228 13.8594C10.8228 14.6187 10.2041 15.2375 9.4447 15.2375C8.67126 15.241 8.049 14.6187 8.049 13.8594ZM15.583 17.1465C14.3033 18.4262 10.6927 18.4262 9.41306 17.1465C9.27244 17.0234 9.27244 16.8055 9.41306 16.6648C9.53611 16.5418 9.75408 16.5418 9.87712 16.6648C10.8545 17.6668 14.0959 17.6844 15.1154 16.6648C15.2385 16.5418 15.4564 16.5418 15.5795 16.6648C15.7236 16.8055 15.7236 17.0234 15.583 17.1465ZM15.5549 15.241C14.7955 15.241 14.1767 14.6223 14.1767 13.8629C14.1767 13.0895 14.7955 12.4672 15.5549 12.4672C16.3283 12.4672 16.9506 13.0859 16.9506 13.8629C16.947 14.6188 16.3283 15.241 15.5549 15.241Z" fill="white"/>
</svg>
