<svg width="20" height="21" viewBox="0 0 20 21" fill="none" xmlns="http://www.w3.org/2000/svg">
<path fill-rule="evenodd" clip-rule="evenodd" d="M0 9.16993C0 4.38166 3.84034 0.5 8.57764 0.5C10.8526 0.5 13.0343 1.41344 14.6429 3.03936C16.2516 4.66529 17.1553 6.87052 17.1553 9.16993C17.1553 13.9582 13.3149 17.8399 8.57764 17.8399C3.84034 17.8399 0 13.9582 0 9.16993ZM17.0134 16.1543L19.568 18.2164H19.6124C20.1292 18.7388 20.1292 19.5858 19.6124 20.1082C19.0955 20.6306 18.2576 20.6306 17.7407 20.1082L15.6207 17.6785C15.4203 17.4766 15.3076 17.2024 15.3076 16.9164C15.3076 16.6304 15.4203 16.3562 15.6207 16.1543C16.0072 15.7704 16.6268 15.7704 17.0134 16.1543Z" fill="#7D92B5"/>
</svg>
