<svg width="32" height="32" viewBox="0 0 32 32" fill="none" xmlns="http://www.w3.org/2000/svg">
<rect opacity="0.2" width="32" height="32" rx="16" fill="#9EAEC7"/>
<path d="M26.1603 9.65593C25.3969 9.99362 24.5873 10.2154 23.7583 10.3139C24.6321 9.79136 25.2861 8.96894 25.5983 7.99993C24.7783 8.48793 23.8793 8.82993 22.9423 9.01493C22.313 8.34151 21.4787 7.89489 20.5693 7.74451C19.6599 7.59413 18.7263 7.74842 17.9136 8.18338C17.1009 8.61834 16.4547 9.30961 16.0755 10.1497C15.6962 10.9898 15.6051 11.9317 15.8163 12.8289C14.1535 12.7456 12.5267 12.3134 11.0416 11.5606C9.55659 10.8077 8.24647 9.75097 7.19634 8.45893C6.82463 9.09738 6.6293 9.82315 6.63034 10.5619C6.63034 12.0119 7.36834 13.2929 8.49034 14.0429C7.82635 14.022 7.17698 13.8427 6.59634 13.5199V13.5719C6.59654 14.5376 6.93071 15.4735 7.54219 16.221C8.15367 16.9684 9.00483 17.4814 9.95134 17.6729C9.33496 17.84 8.68865 17.8646 8.06134 17.7449C8.32821 18.5762 8.84835 19.3031 9.54894 19.824C10.2495 20.3449 11.0955 20.6337 11.9683 20.6499C11.1008 21.3313 10.1075 21.8349 9.04522 22.1321C7.98293 22.4293 6.87247 22.5142 5.77734 22.3819C7.68904 23.6114 9.91444 24.264 12.1873 24.2619C19.8803 24.2619 24.0873 17.8889 24.0873 12.3619C24.0873 12.1819 24.0823 11.9999 24.0743 11.8219C24.8932 11.2301 25.5999 10.4969 26.1613 9.65693L26.1603 9.65593Z" fill="#9EAEC7"/>
</svg>
