<svg width="33" height="32" viewBox="0 0 33 32" fill="none" xmlns="http://www.w3.org/2000/svg">
<rect opacity="0.2" x="0.5" width="32" height="32" rx="16" fill="#1CA2FA"/>
<g clip-path="url(#clip0_296_1257)">
<path d="M26.66 9.65593C25.8966 9.99362 25.087 10.2154 24.258 10.3139C25.1318 9.79136 25.7857 8.96894 26.098 7.99993C25.278 8.48793 24.379 8.82993 23.442 9.01493C22.8126 8.34151 21.9784 7.89489 21.069 7.74451C20.1596 7.59413 19.226 7.74842 18.4133 8.18338C17.6006 8.61834 16.9544 9.30961 16.5752 10.1497C16.1959 10.9898 16.1048 11.9317 16.316 12.8289C14.6531 12.7456 13.0264 12.3134 11.5413 11.5606C10.0563 10.8077 8.74617 9.75097 7.69604 8.45893C7.32433 9.09738 7.12899 9.82315 7.13004 10.5619C7.13004 12.0119 7.86804 13.2929 8.99004 14.0429C8.32605 14.022 7.67667 13.8427 7.09604 13.5199V13.5719C7.09624 14.5376 7.43041 15.4735 8.04189 16.221C8.65336 16.9684 9.50452 17.4814 10.451 17.6729C9.83465 17.84 9.18835 17.8646 8.56104 17.7449C8.82791 18.5762 9.34805 19.3031 10.0486 19.824C10.7492 20.3449 11.5952 20.6337 12.468 20.6499C11.6005 21.3313 10.6072 21.8349 9.54492 22.1321C8.48262 22.4293 7.37217 22.5142 6.27704 22.3819C8.18874 23.6114 10.4141 24.264 12.687 24.2619C20.38 24.2619 24.587 17.8889 24.587 12.3619C24.587 12.1819 24.582 11.9999 24.574 11.8219C25.3929 11.2301 26.0996 10.4969 26.661 9.65693L26.66 9.65593Z" fill="#188CD8"/>
</g>
<defs>
<clipPath id="clip0_296_1257">
<rect x="4.5" y="4" width="24" height="24" rx="12" fill="white"/>
</clipPath>
</defs>
</svg>
