<svg width="20" height="20" viewBox="0 0 20 20" fill="none" xmlns="http://www.w3.org/2000/svg">
<path d="M9.91532 0.517354L9.9159 0.517111C9.99667 0.482898 10.0932 0.500165 10.1607 0.569156C10.1608 0.56926 10.1609 0.569364 10.161 0.569468L12.9223 3.41289C12.9225 3.41309 12.9227 3.41329 12.9229 3.41349C12.9717 3.46451 12.9963 3.52973 12.9963 3.59596C12.9963 3.66374 12.9708 3.72868 12.9239 3.77643C12.8325 3.86948 12.6933 3.8678 12.6052 3.77686L12.6048 3.77645L11.0904 2.21719L10.2317 1.33306V2.56555V12.4509C10.2317 12.6013 10.1153 12.7018 10.0002 12.7018C9.8842 12.7018 9.76771 12.6005 9.76771 12.4509V0.750147C9.76771 0.641644 9.83109 0.552908 9.91532 0.517354ZM7.07941 3.77837L7.07825 3.7772C6.98094 3.67876 6.97974 3.51573 7.0766 3.41544L7.07677 3.41527L7.76823 2.69863C7.76827 2.69859 7.76831 2.69855 7.76835 2.69851C7.76837 2.69849 7.76838 2.69847 7.7684 2.69846C7.85825 2.60561 7.9972 2.60553 8.0867 2.69605C8.13558 2.74598 8.16073 2.81137 8.16073 2.87818C8.16073 2.94546 8.1357 3.01034 8.08874 3.0592C8.0887 3.05924 8.08866 3.05928 8.08862 3.05932L7.39664 3.77648C7.30776 3.86852 7.16799 3.86858 7.07941 3.77837ZM15.2856 7.10169C17.3216 7.10169 19 8.8041 19 10.923V15.6699C19 17.7926 17.317 19.5 15.2752 19.5C15.16 19.5 15.0446 19.4005 15.0446 19.2501C15.0446 19.0997 15.16 19.0002 15.2752 19.0002C17.0868 19.0002 18.5369 17.4945 18.5369 15.6699V10.923C18.5369 9.10242 17.0907 7.60154 15.2856 7.60154H14.3916C14.2757 7.60154 14.1601 7.50117 14.1601 7.35162C14.1601 7.20206 14.2757 7.10169 14.3916 7.10169H15.2856ZM5.6093 7.1015C5.72393 7.1015 5.83988 7.20144 5.83988 7.35142C5.83988 7.5014 5.72393 7.60135 5.6093 7.60135H4.72482C2.91307 7.60135 1.46306 9.10709 1.46306 10.9325V15.6785C1.46306 17.4992 2.91033 19 4.71437 19H11.9489C12.0649 19 12.1804 19.1003 12.1804 19.2499C12.1804 19.3994 12.0649 19.4998 11.9489 19.4998H4.71437C2.67842 19.4998 1 17.7974 1 15.6785V10.9325C1 8.80885 2.6831 7.1015 4.72482 7.1015H5.6093Z" fill="#F9F8FB" stroke="#BDB7CF"/>
</svg>
