<svg width="20" height="20" viewBox="0 0 20 20" fill="none" xmlns="http://www.w3.org/2000/svg">
<path d="M10.003 6.87579C8.28273 6.87579 6.87882 8.2797 6.87882 10C6.87882 11.7203 8.28273 13.1242 10.003 13.1242C11.7234 13.1242 13.1273 11.7203 13.1273 10C13.1273 8.2797 11.7234 6.87579 10.003 6.87579ZM19.3734 10C19.3734 8.70626 19.3851 7.42423 19.3124 6.13283C19.2398 4.63283 18.8976 3.30158 17.8007 2.2047C16.7015 1.10548 15.3726 0.765639 13.8726 0.692982C12.5788 0.620326 11.2968 0.632045 10.0054 0.632045C8.71163 0.632045 7.4296 0.620326 6.1382 0.692982C4.6382 0.765639 3.30695 1.10783 2.21007 2.2047C1.11085 3.30392 0.77101 4.63283 0.698353 6.13283C0.625697 7.42658 0.637416 8.70861 0.637416 10C0.637416 11.2914 0.625697 12.5758 0.698353 13.8672C0.77101 15.3672 1.1132 16.6985 2.21007 17.7953C3.30929 18.8945 4.6382 19.2344 6.1382 19.307C7.43195 19.3797 8.71398 19.368 10.0054 19.368C11.2991 19.368 12.5812 19.3797 13.8726 19.307C15.3726 19.2344 16.7038 18.8922 17.8007 17.7953C18.8999 16.6961 19.2398 15.3672 19.3124 13.8672C19.3874 12.5758 19.3734 11.2938 19.3734 10ZM10.003 14.807C7.34288 14.807 5.19601 12.6602 5.19601 10C5.19601 7.33986 7.34288 5.19298 10.003 5.19298C12.6632 5.19298 14.8101 7.33986 14.8101 10C14.8101 12.6602 12.6632 14.807 10.003 14.807ZM15.0069 6.11876C14.3859 6.11876 13.8843 5.6172 13.8843 4.99611C13.8843 4.37501 14.3859 3.87345 15.0069 3.87345C15.628 3.87345 16.1296 4.37501 16.1296 4.99611C16.1298 5.14359 16.1009 5.28966 16.0445 5.42595C15.9882 5.56224 15.9055 5.68607 15.8012 5.79036C15.6969 5.89464 15.5731 5.97733 15.4368 6.03368C15.3005 6.09004 15.1544 6.11895 15.0069 6.11876Z" fill="#9EAEC7"/>
</svg>
