<svg width="100" height="100" viewBox="0 0 100 100" fill="none" xmlns="http://www.w3.org/2000/svg">
<path d="M0 46.64C0 8.23196 8.23196 0 46.64 0H53.36C91.768 0 100 8.23196 100 46.64V53.36C100 91.768 91.768 100 53.36 100H46.64C8.23196 100 0 91.768 0 53.36V46.64Z" fill="white"/>
<path d="M49.9995 11.9258L82.716 30.8147V68.5924L49.9995 87.4813L17.2829 68.5924V30.8147L49.9995 11.9258Z" stroke="#7757D9" stroke-width="3"/>
<circle cx="81.8513" cy="68.2224" r="8.14815" fill="#7757D9"/>
<circle cx="81.8513" cy="30.4445" r="8.14815" fill="#7757D9"/>
<circle cx="49.9997" cy="14.1481" r="8.14815" fill="#7757D9"/>
<circle cx="18.1481" cy="30.4445" r="8.14815" fill="#7757D9"/>
<circle cx="18.1481" cy="68.2224" r="8.14815" fill="#7757D9"/>
<circle cx="49.9997" cy="85.6296" r="8.14815" fill="#7757D9"/>
</svg>
