<svg width="48" height="48" viewBox="0 0 48 48" fill="none" xmlns="http://www.w3.org/2000/svg">
<circle cx="24" cy="24" r="23.5" fill="#04073D" stroke="#B5179E"/>
<path d="M36.7997 14.85C36.4497 14.35 35.9997 14 35.4497 13.75C33.7497 12.9 29.6497 13.1 29.2997 10.9C28.8497 8.05 26.3497 10.95 25.8997 10.95C25.3497 10.95 25.0997 9 24.0497 9C22.9497 9 22.6997 10.95 22.1997 10.95C21.7497 10.95 19.2497 8.05 18.7997 10.9C18.4497 13.05 14.2997 12.9 12.6497 13.75C12.1497 14 11.6497 14.35 11.2997 14.85C11.0497 15.25 11.5997 15.65 11.8997 15.3C12.6997 14.3 14.2997 14.1 15.4497 13.9C16.3997 13.7 17.4497 13.6 18.3997 13.2C19.6997 12.7 19.6497 10.75 20.0497 10.75C20.3497 10.75 21.3997 12.25 22.2997 12.25C23.0997 12.25 23.5997 10.4 24.0497 10.4C24.4997 10.4 24.9997 12.25 25.7997 12.25C26.7497 12.25 27.7997 10.75 28.0997 10.75C28.4997 10.75 28.4497 12.7 29.7497 13.2C30.6497 13.6 31.6997 13.7 32.6997 13.9C33.8497 14.15 35.4997 14.3 36.2497 15.3C36.4997 15.65 37.0497 15.2 36.7997 14.85Z" fill="white"/>
<path d="M34.5 36.5C34.5 37.9 33.4 39 32 39H16C14.6 39 13.5 37.9 13.5 36.5V26H34.5V36.5Z" fill="#440E59"/>
<path d="M24 14C16.25 14 13.5 18.25 13.5 26V36.5H34.5V26C34.5 18.25 31.75 14 24 14Z" fill="#B5179E"/>
<path d="M13.5 35.5C12.95 35.5 12.5 34.9 12.5 34.2V30.8C12.5 30.1 12.95 29.5 13.5 29.5V35.5ZM34.5 29.5C35.05 29.5 35.5 30.1 35.5 30.8V34.2C35.5 34.9 35.05 35.5 34.5 35.5V29.5Z" fill="#440E59"/>
<path d="M11.5 18H10.5V33H12.5V32H11.5V18ZM36.5 18V32H35.5V33H37.5V18H36.5Z" fill="#7D92B5"/>
<path d="M37 20C38.1046 20 39 19.1046 39 18C39 16.8954 38.1046 16 37 16C35.8954 16 35 16.8954 35 18C35 19.1046 35.8954 20 37 20Z" fill="white"/>
<path d="M11 20C12.1046 20 13 19.1046 13 18C13 16.8954 12.1046 16 11 16C9.89543 16 9 16.8954 9 18C9 19.1046 9.89543 20 11 20Z" fill="white"/>
<path d="M18.75 27.75C16.55 27.75 14.75 25.95 14.75 23.75C14.75 21.55 16.55 19.75 18.75 19.75C20.95 19.75 22.75 21.55 22.75 23.75C22.75 25.95 20.95 27.75 18.75 27.75Z" fill="#F4A5E8"/>
<path d="M18.75 26.75C20.4069 26.75 21.75 25.4069 21.75 23.75C21.75 22.0931 20.4069 20.75 18.75 20.75C17.0931 20.75 15.75 22.0931 15.75 23.75C15.75 25.4069 17.0931 26.75 18.75 26.75Z" fill="#545B61"/>
<path d="M18.7496 24.8996C19.3847 24.8996 19.8996 24.3847 19.8996 23.7496C19.8996 23.1145 19.3847 22.5996 18.7496 22.5996C18.1145 22.5996 17.5996 23.1145 17.5996 23.7496C17.5996 24.3847 18.1145 24.8996 18.7496 24.8996Z" fill="#FF5263"/>
<path d="M29.25 27.75C27.05 27.75 25.25 25.95 25.25 23.75C25.25 21.55 27.05 19.75 29.25 19.75C31.45 19.75 33.25 21.55 33.25 23.75C33.25 25.95 31.45 27.75 29.25 27.75Z" fill="#F4A5E8"/>
<path d="M29.25 26.75C27.6 26.75 26.25 25.4 26.25 23.75C26.25 22.1 27.6 20.75 29.25 20.75C30.9 20.75 32.25 22.1 32.25 23.75C32.25 25.4 30.9 26.75 29.25 26.75Z" fill="#545B61"/>
<path d="M29.2496 24.8996C29.8847 24.8996 30.3996 24.3847 30.3996 23.7496C30.3996 23.1145 29.8847 22.5996 29.2496 22.5996C28.6145 22.5996 28.0996 23.1145 28.0996 23.7496C28.0996 24.3847 28.6145 24.8996 29.2496 24.8996Z" fill="#FF5263"/>
<path d="M17.9 35.0498C14.2 35.0498 14.2 28.5498 17.9 28.5498H30.15C33.85 28.5498 33.85 35.0498 30.15 35.0498H17.9Z" fill="#F4A5E8"/>
<path d="M18.25 34.2998C15.25 34.2998 15.25 29.2998 18.25 29.2998H29.75C32.75 29.2998 32.75 34.2998 29.75 34.2998H18.25Z" fill="#440E59"/>
<path opacity="0.7" d="M18.5996 33.3496C18.5996 33.9496 17.5996 33.9496 17.5996 33.3496V30.2996C17.5996 29.6996 18.5996 29.6996 18.5996 30.2996V33.3496ZM20.9496 33.3496C20.9496 33.9496 19.9496 33.9496 19.9496 33.3496V30.2996C19.9496 29.6996 20.9496 29.6996 20.9496 30.2996V33.3496ZM23.2996 33.3496C23.2996 33.9496 22.2996 33.9496 22.2996 33.3496V30.2996C22.2996 29.6996 23.2996 29.6996 23.2996 30.2996V33.3496ZM25.6996 33.3496C25.6996 33.9496 24.6996 33.9496 24.6996 33.3496V30.2996C24.6996 29.6996 25.6996 29.6996 25.6996 30.2996V33.3496ZM28.0496 33.3496C28.0496 33.9496 27.0496 33.9496 27.0496 33.3496V30.2996C27.0496 29.6996 28.0496 29.6996 28.0496 30.2996V33.3496ZM30.3996 33.3496C30.3996 33.9496 29.3996 33.9496 29.3996 33.3496V30.2996C29.3996 29.6996 30.3996 29.6996 30.3996 30.2996V33.3496Z" fill="#7D92B5"/>
<path d="M24 27.5C24.5523 27.5 25 27.0523 25 26.5C25 25.9477 24.5523 25.5 24 25.5C23.4477 25.5 23 25.9477 23 26.5C23 27.0523 23.4477 27.5 24 27.5Z" fill="#F5F5F5"/>
<path d="M23.1582 25.9309L23.4412 25.6484L24.8552 27.0624L24.5727 27.3454L23.1582 25.9309Z" fill="#545B61"/>
</svg>
